<mxfile host="app.diagrams.net" agent="Mozilla/5.0 (Windows NT 10.0; Win64; x64) AppleWebKit/537.36 (KHTML, like Gecko) Chrome/126.0.0.0 Safari/537.36" version="24.7.17">
  <diagram name="Page-1" id="DEvTgjcuUSHmonCLEFPM">
    <mxGraphModel dx="954" dy="592" grid="1" gridSize="10" guides="1" tooltips="1" connect="1" arrows="1" fold="1" page="1" pageScale="1" pageWidth="850" pageHeight="1100" math="0" shadow="0">
      <root>
        <mxCell id="0" />
        <mxCell id="1" parent="0" />
        <mxCell id="Lay3YTcJw-ozIfF06aRY-1" value="Barang" style="whiteSpace=wrap;html=1;align=center;" parent="1" vertex="1">
          <mxGeometry x="160" y="160" width="110" height="60" as="geometry" />
        </mxCell>
        <mxCell id="Lay3YTcJw-ozIfF06aRY-2" value="Jenis Barang" style="whiteSpace=wrap;html=1;align=center;" parent="1" vertex="1">
          <mxGeometry x="480" y="160" width="120" height="60" as="geometry" />
        </mxCell>
        <mxCell id="OLPj5Busk1X3FlCQ_YO9-1" value="nama_barang" style="ellipse;whiteSpace=wrap;html=1;" parent="1" vertex="1">
          <mxGeometry x="165" y="40" width="100" height="60" as="geometry" />
        </mxCell>
        <mxCell id="OLPj5Busk1X3FlCQ_YO9-2" value="Deskripsi" style="ellipse;whiteSpace=wrap;html=1;" parent="1" vertex="1">
          <mxGeometry x="30" y="70" width="100" height="60" as="geometry" />
        </mxCell>
        <mxCell id="OLPj5Busk1X3FlCQ_YO9-3" value="Harga" style="ellipse;whiteSpace=wrap;html=1;" parent="1" vertex="1">
          <mxGeometry x="10" y="180" width="100" height="60" as="geometry" />
        </mxCell>
        <mxCell id="OLPj5Busk1X3FlCQ_YO9-5" value="Berat" style="ellipse;whiteSpace=wrap;html=1;" parent="1" vertex="1">
          <mxGeometry x="165" y="300" width="100" height="60" as="geometry" />
        </mxCell>
        <mxCell id="OLPj5Busk1X3FlCQ_YO9-6" value="" style="endArrow=none;html=1;rounded=0;exitX=1;exitY=0.5;exitDx=0;exitDy=0;" parent="1" source="Lay3YTcJw-ozIfF06aRY-1" edge="1">
          <mxGeometry width="50" height="50" relative="1" as="geometry">
            <mxPoint x="400" y="230" as="sourcePoint" />
            <mxPoint x="360" y="190" as="targetPoint" />
          </mxGeometry>
        </mxCell>
        <mxCell id="OLPj5Busk1X3FlCQ_YO9-7" value="" style="rhombus;whiteSpace=wrap;html=1;" parent="1" vertex="1">
          <mxGeometry x="360" y="175" width="30" height="30" as="geometry" />
        </mxCell>
        <mxCell id="OLPj5Busk1X3FlCQ_YO9-8" value="" style="endArrow=none;html=1;rounded=0;entryX=0;entryY=0.5;entryDx=0;entryDy=0;" parent="1" target="Lay3YTcJw-ozIfF06aRY-2" edge="1">
          <mxGeometry width="50" height="50" relative="1" as="geometry">
            <mxPoint x="390" y="190" as="sourcePoint" />
            <mxPoint x="440" y="140" as="targetPoint" />
          </mxGeometry>
        </mxCell>
        <mxCell id="OLPj5Busk1X3FlCQ_YO9-9" value="" style="endArrow=none;html=1;rounded=0;exitX=0.57;exitY=1;exitDx=0;exitDy=0;exitPerimeter=0;entryX=0.636;entryY=-0.017;entryDx=0;entryDy=0;entryPerimeter=0;" parent="1" source="OLPj5Busk1X3FlCQ_YO9-1" target="Lay3YTcJw-ozIfF06aRY-1" edge="1">
          <mxGeometry width="50" height="50" relative="1" as="geometry">
            <mxPoint x="280" y="150" as="sourcePoint" />
            <mxPoint x="330" y="100" as="targetPoint" />
          </mxGeometry>
        </mxCell>
        <mxCell id="OLPj5Busk1X3FlCQ_YO9-10" value="" style="endArrow=none;html=1;rounded=0;exitX=0.76;exitY=0.933;exitDx=0;exitDy=0;exitPerimeter=0;entryX=0.018;entryY=0.117;entryDx=0;entryDy=0;entryPerimeter=0;" parent="1" source="OLPj5Busk1X3FlCQ_YO9-2" target="Lay3YTcJw-ozIfF06aRY-1" edge="1">
          <mxGeometry width="50" height="50" relative="1" as="geometry">
            <mxPoint x="400" y="230" as="sourcePoint" />
            <mxPoint x="450" y="180" as="targetPoint" />
          </mxGeometry>
        </mxCell>
        <mxCell id="OLPj5Busk1X3FlCQ_YO9-11" value="" style="endArrow=none;html=1;rounded=0;entryX=0.98;entryY=0.667;entryDx=0;entryDy=0;entryPerimeter=0;exitX=0;exitY=0.75;exitDx=0;exitDy=0;" parent="1" source="Lay3YTcJw-ozIfF06aRY-1" target="OLPj5Busk1X3FlCQ_YO9-3" edge="1">
          <mxGeometry width="50" height="50" relative="1" as="geometry">
            <mxPoint x="70" y="280" as="sourcePoint" />
            <mxPoint x="120" y="230" as="targetPoint" />
          </mxGeometry>
        </mxCell>
        <mxCell id="OLPj5Busk1X3FlCQ_YO9-12" value="" style="endArrow=none;html=1;rounded=0;exitX=0.66;exitY=0.017;exitDx=0;exitDy=0;exitPerimeter=0;entryX=0.25;entryY=1;entryDx=0;entryDy=0;" parent="1" source="odBBbtmIIPWQY82F4jDH-3" target="Lay3YTcJw-ozIfF06aRY-1" edge="1">
          <mxGeometry width="50" height="50" relative="1" as="geometry">
            <mxPoint x="116" y="293" as="sourcePoint" />
            <mxPoint x="450" y="180" as="targetPoint" />
          </mxGeometry>
        </mxCell>
        <mxCell id="OLPj5Busk1X3FlCQ_YO9-13" value="" style="endArrow=none;html=1;rounded=0;exitX=0.5;exitY=0;exitDx=0;exitDy=0;entryX=0.636;entryY=1;entryDx=0;entryDy=0;entryPerimeter=0;" parent="1" source="OLPj5Busk1X3FlCQ_YO9-5" target="Lay3YTcJw-ozIfF06aRY-1" edge="1">
          <mxGeometry width="50" height="50" relative="1" as="geometry">
            <mxPoint x="310" y="290" as="sourcePoint" />
            <mxPoint x="360" y="240" as="targetPoint" />
          </mxGeometry>
        </mxCell>
        <mxCell id="odBBbtmIIPWQY82F4jDH-1" value="memiliki" style="text;html=1;align=center;verticalAlign=middle;resizable=0;points=[];autosize=1;strokeColor=none;fillColor=none;" parent="1" vertex="1">
          <mxGeometry x="340" y="130" width="70" height="30" as="geometry" />
        </mxCell>
        <mxCell id="odBBbtmIIPWQY82F4jDH-2" value="dimiliki" style="text;html=1;align=center;verticalAlign=middle;resizable=0;points=[];autosize=1;strokeColor=none;fillColor=none;" parent="1" vertex="1">
          <mxGeometry x="345" y="220" width="60" height="30" as="geometry" />
        </mxCell>
        <mxCell id="odBBbtmIIPWQY82F4jDH-3" value="&amp;nbsp;Id Barang" style="ellipse;whiteSpace=wrap;html=1;align=center;fontStyle=4;" parent="1" vertex="1">
          <mxGeometry x="40" y="300" width="100" height="60" as="geometry" />
        </mxCell>
        <mxCell id="WGw94XZlUqUMlHSDWGLU-2" value="1" style="text;html=1;align=center;verticalAlign=middle;resizable=0;points=[];autosize=1;strokeColor=none;fillColor=none;" vertex="1" parent="1">
          <mxGeometry x="265" y="168" width="30" height="30" as="geometry" />
        </mxCell>
        <mxCell id="WGw94XZlUqUMlHSDWGLU-3" value="n" style="text;html=1;align=center;verticalAlign=middle;resizable=0;points=[];autosize=1;strokeColor=none;fillColor=none;" vertex="1" parent="1">
          <mxGeometry x="265" y="188" width="30" height="30" as="geometry" />
        </mxCell>
        <mxCell id="WGw94XZlUqUMlHSDWGLU-4" value="1" style="text;html=1;align=center;verticalAlign=middle;resizable=0;points=[];autosize=1;strokeColor=none;fillColor=none;" vertex="1" parent="1">
          <mxGeometry x="455" y="168" width="30" height="30" as="geometry" />
        </mxCell>
        <mxCell id="WGw94XZlUqUMlHSDWGLU-5" value="1" style="text;html=1;align=center;verticalAlign=middle;resizable=0;points=[];autosize=1;strokeColor=none;fillColor=none;" vertex="1" parent="1">
          <mxGeometry x="455" y="188" width="30" height="30" as="geometry" />
        </mxCell>
        <mxCell id="WGw94XZlUqUMlHSDWGLU-6" value="merk" style="ellipse;whiteSpace=wrap;html=1;" vertex="1" parent="1">
          <mxGeometry x="670" y="153" width="100" height="60" as="geometry" />
        </mxCell>
        <mxCell id="WGw94XZlUqUMlHSDWGLU-7" value="nama_jenis_barang" style="ellipse;whiteSpace=wrap;html=1;" vertex="1" parent="1">
          <mxGeometry x="630" y="250" width="110" height="60" as="geometry" />
        </mxCell>
        <mxCell id="WGw94XZlUqUMlHSDWGLU-23" value="Id_jenis" style="ellipse;whiteSpace=wrap;html=1;align=center;fontStyle=4;" vertex="1" parent="1">
          <mxGeometry x="600" y="60" width="100" height="50" as="geometry" />
        </mxCell>
        <mxCell id="WGw94XZlUqUMlHSDWGLU-24" value="" style="endArrow=none;html=1;rounded=0;entryX=0.41;entryY=1.06;entryDx=0;entryDy=0;entryPerimeter=0;exitX=0.75;exitY=0;exitDx=0;exitDy=0;" edge="1" parent="1" source="Lay3YTcJw-ozIfF06aRY-2" target="WGw94XZlUqUMlHSDWGLU-23">
          <mxGeometry width="50" height="50" relative="1" as="geometry">
            <mxPoint x="500" y="340" as="sourcePoint" />
            <mxPoint x="550" y="290" as="targetPoint" />
          </mxGeometry>
        </mxCell>
        <mxCell id="WGw94XZlUqUMlHSDWGLU-25" value="" style="endArrow=none;html=1;rounded=0;exitX=1;exitY=0.5;exitDx=0;exitDy=0;entryX=0.04;entryY=0.65;entryDx=0;entryDy=0;entryPerimeter=0;" edge="1" parent="1" source="Lay3YTcJw-ozIfF06aRY-2" target="WGw94XZlUqUMlHSDWGLU-6">
          <mxGeometry width="50" height="50" relative="1" as="geometry">
            <mxPoint x="620" y="240" as="sourcePoint" />
            <mxPoint x="670" y="190" as="targetPoint" />
          </mxGeometry>
        </mxCell>
        <mxCell id="WGw94XZlUqUMlHSDWGLU-26" value="" style="endArrow=none;html=1;rounded=0;entryX=0;entryY=0.5;entryDx=0;entryDy=0;exitX=0.75;exitY=1;exitDx=0;exitDy=0;" edge="1" parent="1" source="Lay3YTcJw-ozIfF06aRY-2" target="WGw94XZlUqUMlHSDWGLU-7">
          <mxGeometry width="50" height="50" relative="1" as="geometry">
            <mxPoint x="550" y="380" as="sourcePoint" />
            <mxPoint x="600" y="330" as="targetPoint" />
          </mxGeometry>
        </mxCell>
        <mxCell id="WGw94XZlUqUMlHSDWGLU-40" value="Entity" style="swimlane;childLayout=stackLayout;horizontal=1;startSize=50;horizontalStack=0;rounded=1;fontSize=14;fontStyle=0;strokeWidth=2;resizeParent=0;resizeLast=1;shadow=0;dashed=0;align=center;arcSize=4;whiteSpace=wrap;html=1;" vertex="1" parent="1">
          <mxGeometry x="135" y="420" width="160" height="160" as="geometry" />
        </mxCell>
        <mxCell id="WGw94XZlUqUMlHSDWGLU-41" value="nama_barang&lt;div&gt;deskripsi&lt;/div&gt;&lt;div&gt;harga&lt;/div&gt;&lt;div&gt;&lt;u&gt;Id Barang&lt;/u&gt;&lt;/div&gt;" style="align=left;strokeColor=none;fillColor=none;spacingLeft=4;fontSize=12;verticalAlign=top;resizable=0;rotatable=0;part=1;html=1;" vertex="1" parent="WGw94XZlUqUMlHSDWGLU-40">
          <mxGeometry y="50" width="160" height="110" as="geometry" />
        </mxCell>
        <mxCell id="WGw94XZlUqUMlHSDWGLU-42" value="Entity" style="swimlane;childLayout=stackLayout;horizontal=1;startSize=50;horizontalStack=0;rounded=1;fontSize=14;fontStyle=0;strokeWidth=2;resizeParent=0;resizeLast=1;shadow=0;dashed=0;align=center;arcSize=4;whiteSpace=wrap;html=1;" vertex="1" parent="1">
          <mxGeometry x="300" y="420" width="160" height="160" as="geometry" />
        </mxCell>
        <mxCell id="WGw94XZlUqUMlHSDWGLU-43" value="&lt;u&gt;Id jenis&lt;/u&gt;&lt;div&gt;&lt;u&gt;merk&lt;/u&gt;&lt;/div&gt;&lt;div&gt;&lt;u&gt;nama_jenis_barang&lt;/u&gt;&lt;/div&gt;" style="align=left;strokeColor=none;fillColor=none;spacingLeft=4;fontSize=12;verticalAlign=top;resizable=0;rotatable=0;part=1;html=1;" vertex="1" parent="WGw94XZlUqUMlHSDWGLU-42">
          <mxGeometry y="50" width="160" height="110" as="geometry" />
        </mxCell>
      </root>
    </mxGraphModel>
  </diagram>
</mxfile>
